<mxfile host="app.diagrams.net" agent="Mozilla/5.0 (Macintosh; Intel Mac OS X 10_15_7) AppleWebKit/537.36 (KHTML, like Gecko) Chrome/127.0.0.0 Safari/537.36" version="24.7.7">
  <diagram name="Page-1" id="-Yn__2_uJ8sJmbEdIJiI">
    <mxGraphModel dx="1180" dy="880" grid="1" gridSize="10" guides="1" tooltips="1" connect="1" arrows="1" fold="1" page="1" pageScale="1" pageWidth="850" pageHeight="1100" math="0" shadow="0">
      <root>
        <mxCell id="0" />
        <mxCell id="1" parent="0" />
        <mxCell id="nhkM820oUjrGKa_f3z9d-70" value="(c) shingaridavesh@gmail.com" style="text;html=1;align=center;verticalAlign=middle;whiteSpace=wrap;rounded=0;fontSize=27;fontColor=#f8f7f7;rotation=0;" vertex="1" parent="1">
          <mxGeometry x="110" y="580" width="740" height="30" as="geometry" />
        </mxCell>
        <mxCell id="nhkM820oUjrGKa_f3z9d-18" value="" style="rounded=0;whiteSpace=wrap;html=1;fillColor=#ffe6cc;strokeColor=#d79b00;" vertex="1" parent="1">
          <mxGeometry x="110" y="270" width="170" height="310" as="geometry" />
        </mxCell>
        <mxCell id="nhkM820oUjrGKa_f3z9d-1" value="" style="rounded=0;whiteSpace=wrap;html=1;fillColor=#d5e8d4;strokeColor=#82b366;align=center;strokeWidth=2;" vertex="1" parent="1">
          <mxGeometry x="120" y="280" width="90" height="120" as="geometry" />
        </mxCell>
        <mxCell id="nhkM820oUjrGKa_f3z9d-2" value="" style="rounded=0;whiteSpace=wrap;html=1;fillColor=#d5e8d4;strokeColor=#82b366;align=center;strokeWidth=2;" vertex="1" parent="1">
          <mxGeometry x="140" y="300" width="90" height="120" as="geometry" />
        </mxCell>
        <mxCell id="nhkM820oUjrGKa_f3z9d-3" value="" style="rounded=0;whiteSpace=wrap;html=1;fillColor=#d5e8d4;strokeColor=#82b366;align=center;strokeWidth=2;" vertex="1" parent="1">
          <mxGeometry x="160" y="320" width="90" height="120" as="geometry" />
        </mxCell>
        <mxCell id="nhkM820oUjrGKa_f3z9d-4" value="" style="rounded=0;whiteSpace=wrap;html=1;fillColor=#d5e8d4;strokeColor=#82b366;align=center;strokeWidth=2;" vertex="1" parent="1">
          <mxGeometry x="180" y="340" width="90" height="120" as="geometry" />
        </mxCell>
        <mxCell id="nhkM820oUjrGKa_f3z9d-5" value="BANK 3" style="text;html=1;align=center;verticalAlign=middle;whiteSpace=wrap;rounded=0;" vertex="1" parent="1">
          <mxGeometry x="120" y="280" width="90" height="20" as="geometry" />
        </mxCell>
        <mxCell id="nhkM820oUjrGKa_f3z9d-6" value="BANK 2" style="text;html=1;align=center;verticalAlign=middle;whiteSpace=wrap;rounded=0;" vertex="1" parent="1">
          <mxGeometry x="140" y="300" width="90" height="20" as="geometry" />
        </mxCell>
        <mxCell id="nhkM820oUjrGKa_f3z9d-7" value="BANK 1" style="text;html=1;align=center;verticalAlign=middle;whiteSpace=wrap;rounded=0;" vertex="1" parent="1">
          <mxGeometry x="160" y="320" width="90" height="20" as="geometry" />
        </mxCell>
        <mxCell id="nhkM820oUjrGKa_f3z9d-8" value="BANK 0" style="text;html=1;align=center;verticalAlign=middle;whiteSpace=wrap;rounded=0;" vertex="1" parent="1">
          <mxGeometry x="180" y="340" width="90" height="20" as="geometry" />
        </mxCell>
        <mxCell id="nhkM820oUjrGKa_f3z9d-9" value="" style="rounded=0;whiteSpace=wrap;html=1;fillColor=#dae8fc;strokeColor=#6c8ebf;align=center;strokeWidth=2;" vertex="1" parent="1">
          <mxGeometry x="120" y="520" width="150" height="40" as="geometry" />
        </mxCell>
        <mxCell id="nhkM820oUjrGKa_f3z9d-10" style="edgeStyle=orthogonalEdgeStyle;rounded=0;orthogonalLoop=1;jettySize=auto;html=1;startArrow=classic;startFill=1;" edge="1" parent="1">
          <mxGeometry relative="1" as="geometry">
            <mxPoint x="219.6" y="460" as="sourcePoint" />
            <mxPoint x="219.6" y="520" as="targetPoint" />
          </mxGeometry>
        </mxCell>
        <mxCell id="nhkM820oUjrGKa_f3z9d-11" style="edgeStyle=orthogonalEdgeStyle;rounded=0;orthogonalLoop=1;jettySize=auto;html=1;" edge="1" parent="1">
          <mxGeometry relative="1" as="geometry">
            <mxPoint x="194.79999999999998" y="460" as="sourcePoint" />
            <mxPoint x="194.79999999999998" y="520" as="targetPoint" />
          </mxGeometry>
        </mxCell>
        <mxCell id="nhkM820oUjrGKa_f3z9d-12" style="edgeStyle=orthogonalEdgeStyle;rounded=0;orthogonalLoop=1;jettySize=auto;html=1;exitX=0.12;exitY=1;exitDx=0;exitDy=0;exitPerimeter=0;" edge="1" parent="1" source="nhkM820oUjrGKa_f3z9d-3">
          <mxGeometry relative="1" as="geometry">
            <mxPoint x="170" y="460" as="sourcePoint" />
            <mxPoint x="170" y="520" as="targetPoint" />
          </mxGeometry>
        </mxCell>
        <mxCell id="nhkM820oUjrGKa_f3z9d-13" style="edgeStyle=orthogonalEdgeStyle;rounded=0;orthogonalLoop=1;jettySize=auto;html=1;" edge="1" parent="1">
          <mxGeometry relative="1" as="geometry">
            <mxPoint x="145" y="420" as="sourcePoint" />
            <mxPoint x="145" y="520.36" as="targetPoint" />
          </mxGeometry>
        </mxCell>
        <mxCell id="nhkM820oUjrGKa_f3z9d-16" value="LOCAL IO GATING" style="text;html=1;align=center;verticalAlign=middle;whiteSpace=wrap;rounded=0;" vertex="1" parent="1">
          <mxGeometry x="120" y="530" width="150" height="20" as="geometry" />
        </mxCell>
        <mxCell id="nhkM820oUjrGKa_f3z9d-19" value="" style="rounded=0;whiteSpace=wrap;html=1;fillColor=#ffe6cc;strokeColor=#d79b00;" vertex="1" parent="1">
          <mxGeometry x="300" y="270" width="170" height="310" as="geometry" />
        </mxCell>
        <mxCell id="nhkM820oUjrGKa_f3z9d-20" value="" style="rounded=0;whiteSpace=wrap;html=1;fillColor=#d5e8d4;strokeColor=#82b366;align=center;strokeWidth=2;" vertex="1" parent="1">
          <mxGeometry x="310" y="280" width="90" height="120" as="geometry" />
        </mxCell>
        <mxCell id="nhkM820oUjrGKa_f3z9d-21" value="" style="rounded=0;whiteSpace=wrap;html=1;fillColor=#d5e8d4;strokeColor=#82b366;align=center;strokeWidth=2;" vertex="1" parent="1">
          <mxGeometry x="330" y="300" width="90" height="120" as="geometry" />
        </mxCell>
        <mxCell id="nhkM820oUjrGKa_f3z9d-22" value="" style="rounded=0;whiteSpace=wrap;html=1;fillColor=#d5e8d4;strokeColor=#82b366;align=center;strokeWidth=2;" vertex="1" parent="1">
          <mxGeometry x="350" y="320" width="90" height="120" as="geometry" />
        </mxCell>
        <mxCell id="nhkM820oUjrGKa_f3z9d-23" value="" style="rounded=0;whiteSpace=wrap;html=1;fillColor=#d5e8d4;strokeColor=#82b366;align=center;strokeWidth=2;" vertex="1" parent="1">
          <mxGeometry x="370" y="340" width="90" height="120" as="geometry" />
        </mxCell>
        <mxCell id="nhkM820oUjrGKa_f3z9d-24" value="BANK 3" style="text;html=1;align=center;verticalAlign=middle;whiteSpace=wrap;rounded=0;" vertex="1" parent="1">
          <mxGeometry x="310" y="280" width="90" height="20" as="geometry" />
        </mxCell>
        <mxCell id="nhkM820oUjrGKa_f3z9d-25" value="BANK 2" style="text;html=1;align=center;verticalAlign=middle;whiteSpace=wrap;rounded=0;" vertex="1" parent="1">
          <mxGeometry x="330" y="300" width="90" height="20" as="geometry" />
        </mxCell>
        <mxCell id="nhkM820oUjrGKa_f3z9d-26" value="BANK 1" style="text;html=1;align=center;verticalAlign=middle;whiteSpace=wrap;rounded=0;" vertex="1" parent="1">
          <mxGeometry x="350" y="320" width="90" height="20" as="geometry" />
        </mxCell>
        <mxCell id="nhkM820oUjrGKa_f3z9d-27" value="BANK 0" style="text;html=1;align=center;verticalAlign=middle;whiteSpace=wrap;rounded=0;" vertex="1" parent="1">
          <mxGeometry x="370" y="340" width="90" height="20" as="geometry" />
        </mxCell>
        <mxCell id="nhkM820oUjrGKa_f3z9d-28" value="" style="rounded=0;whiteSpace=wrap;html=1;fillColor=#dae8fc;strokeColor=#6c8ebf;align=center;strokeWidth=2;" vertex="1" parent="1">
          <mxGeometry x="310" y="520" width="150" height="40" as="geometry" />
        </mxCell>
        <mxCell id="nhkM820oUjrGKa_f3z9d-29" style="edgeStyle=orthogonalEdgeStyle;rounded=0;orthogonalLoop=1;jettySize=auto;html=1;startArrow=classic;startFill=1;" edge="1" parent="1">
          <mxGeometry relative="1" as="geometry">
            <mxPoint x="409.6" y="460" as="sourcePoint" />
            <mxPoint x="409.6" y="520" as="targetPoint" />
          </mxGeometry>
        </mxCell>
        <mxCell id="nhkM820oUjrGKa_f3z9d-30" style="edgeStyle=orthogonalEdgeStyle;rounded=0;orthogonalLoop=1;jettySize=auto;html=1;" edge="1" parent="1">
          <mxGeometry relative="1" as="geometry">
            <mxPoint x="384.79999999999995" y="460" as="sourcePoint" />
            <mxPoint x="384.79999999999995" y="520" as="targetPoint" />
          </mxGeometry>
        </mxCell>
        <mxCell id="nhkM820oUjrGKa_f3z9d-31" style="edgeStyle=orthogonalEdgeStyle;rounded=0;orthogonalLoop=1;jettySize=auto;html=1;exitX=0.12;exitY=1;exitDx=0;exitDy=0;exitPerimeter=0;" edge="1" parent="1" source="nhkM820oUjrGKa_f3z9d-22">
          <mxGeometry relative="1" as="geometry">
            <mxPoint x="360" y="460" as="sourcePoint" />
            <mxPoint x="360" y="520" as="targetPoint" />
          </mxGeometry>
        </mxCell>
        <mxCell id="nhkM820oUjrGKa_f3z9d-32" style="edgeStyle=orthogonalEdgeStyle;rounded=0;orthogonalLoop=1;jettySize=auto;html=1;" edge="1" parent="1">
          <mxGeometry relative="1" as="geometry">
            <mxPoint x="335" y="420" as="sourcePoint" />
            <mxPoint x="335" y="520.36" as="targetPoint" />
          </mxGeometry>
        </mxCell>
        <mxCell id="nhkM820oUjrGKa_f3z9d-33" value="LOCAL IO GATING" style="text;html=1;align=center;verticalAlign=middle;whiteSpace=wrap;rounded=0;" vertex="1" parent="1">
          <mxGeometry x="310" y="530" width="150" height="20" as="geometry" />
        </mxCell>
        <mxCell id="nhkM820oUjrGKa_f3z9d-34" value="" style="rounded=0;whiteSpace=wrap;html=1;fillColor=#ffe6cc;strokeColor=#d79b00;" vertex="1" parent="1">
          <mxGeometry x="490" y="270" width="170" height="310" as="geometry" />
        </mxCell>
        <mxCell id="nhkM820oUjrGKa_f3z9d-35" value="" style="rounded=0;whiteSpace=wrap;html=1;fillColor=#d5e8d4;strokeColor=#82b366;align=center;strokeWidth=2;" vertex="1" parent="1">
          <mxGeometry x="500" y="280" width="90" height="120" as="geometry" />
        </mxCell>
        <mxCell id="nhkM820oUjrGKa_f3z9d-36" value="" style="rounded=0;whiteSpace=wrap;html=1;fillColor=#d5e8d4;strokeColor=#82b366;align=center;strokeWidth=2;" vertex="1" parent="1">
          <mxGeometry x="520" y="300" width="90" height="120" as="geometry" />
        </mxCell>
        <mxCell id="nhkM820oUjrGKa_f3z9d-37" value="" style="rounded=0;whiteSpace=wrap;html=1;fillColor=#d5e8d4;strokeColor=#82b366;align=center;strokeWidth=2;" vertex="1" parent="1">
          <mxGeometry x="540" y="320" width="90" height="120" as="geometry" />
        </mxCell>
        <mxCell id="nhkM820oUjrGKa_f3z9d-38" value="" style="rounded=0;whiteSpace=wrap;html=1;fillColor=#d5e8d4;strokeColor=#82b366;align=center;strokeWidth=2;" vertex="1" parent="1">
          <mxGeometry x="560" y="340" width="90" height="120" as="geometry" />
        </mxCell>
        <mxCell id="nhkM820oUjrGKa_f3z9d-39" value="BANK 3" style="text;html=1;align=center;verticalAlign=middle;whiteSpace=wrap;rounded=0;" vertex="1" parent="1">
          <mxGeometry x="500" y="280" width="90" height="20" as="geometry" />
        </mxCell>
        <mxCell id="nhkM820oUjrGKa_f3z9d-40" value="BANK 2" style="text;html=1;align=center;verticalAlign=middle;whiteSpace=wrap;rounded=0;" vertex="1" parent="1">
          <mxGeometry x="520" y="300" width="90" height="20" as="geometry" />
        </mxCell>
        <mxCell id="nhkM820oUjrGKa_f3z9d-41" value="BANK 1" style="text;html=1;align=center;verticalAlign=middle;whiteSpace=wrap;rounded=0;" vertex="1" parent="1">
          <mxGeometry x="540" y="320" width="90" height="20" as="geometry" />
        </mxCell>
        <mxCell id="nhkM820oUjrGKa_f3z9d-42" value="BANK 0" style="text;html=1;align=center;verticalAlign=middle;whiteSpace=wrap;rounded=0;" vertex="1" parent="1">
          <mxGeometry x="560" y="340" width="90" height="20" as="geometry" />
        </mxCell>
        <mxCell id="nhkM820oUjrGKa_f3z9d-43" value="" style="rounded=0;whiteSpace=wrap;html=1;fillColor=#dae8fc;strokeColor=#6c8ebf;align=center;strokeWidth=2;" vertex="1" parent="1">
          <mxGeometry x="500" y="520" width="150" height="40" as="geometry" />
        </mxCell>
        <mxCell id="nhkM820oUjrGKa_f3z9d-44" style="edgeStyle=orthogonalEdgeStyle;rounded=0;orthogonalLoop=1;jettySize=auto;html=1;startArrow=classic;startFill=1;" edge="1" parent="1">
          <mxGeometry relative="1" as="geometry">
            <mxPoint x="599.6" y="460" as="sourcePoint" />
            <mxPoint x="599.6" y="520" as="targetPoint" />
          </mxGeometry>
        </mxCell>
        <mxCell id="nhkM820oUjrGKa_f3z9d-45" style="edgeStyle=orthogonalEdgeStyle;rounded=0;orthogonalLoop=1;jettySize=auto;html=1;" edge="1" parent="1">
          <mxGeometry relative="1" as="geometry">
            <mxPoint x="574.8" y="460" as="sourcePoint" />
            <mxPoint x="574.8" y="520" as="targetPoint" />
          </mxGeometry>
        </mxCell>
        <mxCell id="nhkM820oUjrGKa_f3z9d-46" style="edgeStyle=orthogonalEdgeStyle;rounded=0;orthogonalLoop=1;jettySize=auto;html=1;exitX=0.12;exitY=1;exitDx=0;exitDy=0;exitPerimeter=0;" edge="1" parent="1" source="nhkM820oUjrGKa_f3z9d-37">
          <mxGeometry relative="1" as="geometry">
            <mxPoint x="550" y="460" as="sourcePoint" />
            <mxPoint x="550" y="520" as="targetPoint" />
          </mxGeometry>
        </mxCell>
        <mxCell id="nhkM820oUjrGKa_f3z9d-47" style="edgeStyle=orthogonalEdgeStyle;rounded=0;orthogonalLoop=1;jettySize=auto;html=1;" edge="1" parent="1">
          <mxGeometry relative="1" as="geometry">
            <mxPoint x="525" y="420" as="sourcePoint" />
            <mxPoint x="525" y="520.36" as="targetPoint" />
          </mxGeometry>
        </mxCell>
        <mxCell id="nhkM820oUjrGKa_f3z9d-48" value="LOCAL IO GATING" style="text;html=1;align=center;verticalAlign=middle;whiteSpace=wrap;rounded=0;" vertex="1" parent="1">
          <mxGeometry x="500" y="530" width="150" height="20" as="geometry" />
        </mxCell>
        <mxCell id="nhkM820oUjrGKa_f3z9d-49" value="" style="rounded=0;whiteSpace=wrap;html=1;fillColor=#ffe6cc;strokeColor=#d79b00;" vertex="1" parent="1">
          <mxGeometry x="680" y="270" width="170" height="310" as="geometry" />
        </mxCell>
        <mxCell id="nhkM820oUjrGKa_f3z9d-50" value="" style="rounded=0;whiteSpace=wrap;html=1;fillColor=#d5e8d4;strokeColor=#82b366;align=center;strokeWidth=2;" vertex="1" parent="1">
          <mxGeometry x="690" y="280" width="90" height="120" as="geometry" />
        </mxCell>
        <mxCell id="nhkM820oUjrGKa_f3z9d-51" value="" style="rounded=0;whiteSpace=wrap;html=1;fillColor=#d5e8d4;strokeColor=#82b366;align=center;strokeWidth=2;" vertex="1" parent="1">
          <mxGeometry x="710" y="300" width="90" height="120" as="geometry" />
        </mxCell>
        <mxCell id="nhkM820oUjrGKa_f3z9d-52" value="" style="rounded=0;whiteSpace=wrap;html=1;fillColor=#d5e8d4;strokeColor=#82b366;align=center;strokeWidth=2;" vertex="1" parent="1">
          <mxGeometry x="730" y="320" width="90" height="120" as="geometry" />
        </mxCell>
        <mxCell id="nhkM820oUjrGKa_f3z9d-53" value="" style="rounded=0;whiteSpace=wrap;html=1;fillColor=#d5e8d4;strokeColor=#82b366;align=center;strokeWidth=2;" vertex="1" parent="1">
          <mxGeometry x="750" y="340" width="90" height="120" as="geometry" />
        </mxCell>
        <mxCell id="nhkM820oUjrGKa_f3z9d-54" value="BANK 3" style="text;html=1;align=center;verticalAlign=middle;whiteSpace=wrap;rounded=0;" vertex="1" parent="1">
          <mxGeometry x="690" y="280" width="90" height="20" as="geometry" />
        </mxCell>
        <mxCell id="nhkM820oUjrGKa_f3z9d-55" value="BANK 2" style="text;html=1;align=center;verticalAlign=middle;whiteSpace=wrap;rounded=0;" vertex="1" parent="1">
          <mxGeometry x="710" y="300" width="90" height="20" as="geometry" />
        </mxCell>
        <mxCell id="nhkM820oUjrGKa_f3z9d-56" value="BANK 1" style="text;html=1;align=center;verticalAlign=middle;whiteSpace=wrap;rounded=0;" vertex="1" parent="1">
          <mxGeometry x="730" y="320" width="90" height="20" as="geometry" />
        </mxCell>
        <mxCell id="nhkM820oUjrGKa_f3z9d-57" value="BANK 0" style="text;html=1;align=center;verticalAlign=middle;whiteSpace=wrap;rounded=0;" vertex="1" parent="1">
          <mxGeometry x="750" y="340" width="90" height="20" as="geometry" />
        </mxCell>
        <mxCell id="nhkM820oUjrGKa_f3z9d-58" value="" style="rounded=0;whiteSpace=wrap;html=1;fillColor=#dae8fc;strokeColor=#6c8ebf;align=center;strokeWidth=2;" vertex="1" parent="1">
          <mxGeometry x="690" y="520" width="150" height="40" as="geometry" />
        </mxCell>
        <mxCell id="nhkM820oUjrGKa_f3z9d-59" style="edgeStyle=orthogonalEdgeStyle;rounded=0;orthogonalLoop=1;jettySize=auto;html=1;startArrow=classic;startFill=1;" edge="1" parent="1">
          <mxGeometry relative="1" as="geometry">
            <mxPoint x="789.6" y="460" as="sourcePoint" />
            <mxPoint x="789.6" y="520" as="targetPoint" />
          </mxGeometry>
        </mxCell>
        <mxCell id="nhkM820oUjrGKa_f3z9d-60" style="edgeStyle=orthogonalEdgeStyle;rounded=0;orthogonalLoop=1;jettySize=auto;html=1;" edge="1" parent="1">
          <mxGeometry relative="1" as="geometry">
            <mxPoint x="764.8" y="460" as="sourcePoint" />
            <mxPoint x="764.8" y="520" as="targetPoint" />
          </mxGeometry>
        </mxCell>
        <mxCell id="nhkM820oUjrGKa_f3z9d-61" style="edgeStyle=orthogonalEdgeStyle;rounded=0;orthogonalLoop=1;jettySize=auto;html=1;exitX=0.12;exitY=1;exitDx=0;exitDy=0;exitPerimeter=0;" edge="1" parent="1" source="nhkM820oUjrGKa_f3z9d-52">
          <mxGeometry relative="1" as="geometry">
            <mxPoint x="740" y="460" as="sourcePoint" />
            <mxPoint x="740" y="520" as="targetPoint" />
          </mxGeometry>
        </mxCell>
        <mxCell id="nhkM820oUjrGKa_f3z9d-62" style="edgeStyle=orthogonalEdgeStyle;rounded=0;orthogonalLoop=1;jettySize=auto;html=1;" edge="1" parent="1">
          <mxGeometry relative="1" as="geometry">
            <mxPoint x="715" y="420" as="sourcePoint" />
            <mxPoint x="715" y="520.36" as="targetPoint" />
          </mxGeometry>
        </mxCell>
        <mxCell id="nhkM820oUjrGKa_f3z9d-63" value="LOCAL IO GATING" style="text;html=1;align=center;verticalAlign=middle;whiteSpace=wrap;rounded=0;" vertex="1" parent="1">
          <mxGeometry x="690" y="530" width="150" height="20" as="geometry" />
        </mxCell>
        <mxCell id="nhkM820oUjrGKa_f3z9d-64" value="" style="rounded=0;whiteSpace=wrap;html=1;fillColor=#9fc5f9;strokeColor=#6c8ebf;align=center;strokeWidth=2;" vertex="1" parent="1">
          <mxGeometry x="110" y="620" width="740" height="40" as="geometry" />
        </mxCell>
        <mxCell id="nhkM820oUjrGKa_f3z9d-65" value="&lt;b&gt;&lt;font style=&quot;font-size: 15px;&quot;&gt;GLOBAL IO GATING&lt;/font&gt;&lt;/b&gt;" style="text;html=1;align=center;verticalAlign=middle;whiteSpace=wrap;rounded=0;" vertex="1" parent="1">
          <mxGeometry x="110" y="630" width="740" height="20" as="geometry" />
        </mxCell>
        <mxCell id="nhkM820oUjrGKa_f3z9d-66" style="edgeStyle=orthogonalEdgeStyle;rounded=0;orthogonalLoop=1;jettySize=auto;html=1;startArrow=classic;startFill=1;strokeWidth=2;" edge="1" parent="1">
          <mxGeometry relative="1" as="geometry">
            <mxPoint x="194.66" y="560" as="sourcePoint" />
            <mxPoint x="194.66" y="620" as="targetPoint" />
          </mxGeometry>
        </mxCell>
        <mxCell id="nhkM820oUjrGKa_f3z9d-67" style="edgeStyle=orthogonalEdgeStyle;rounded=0;orthogonalLoop=1;jettySize=auto;html=1;startArrow=classic;startFill=1;strokeWidth=2;" edge="1" parent="1">
          <mxGeometry relative="1" as="geometry">
            <mxPoint x="384.65999999999997" y="560" as="sourcePoint" />
            <mxPoint x="384.65999999999997" y="620" as="targetPoint" />
          </mxGeometry>
        </mxCell>
        <mxCell id="nhkM820oUjrGKa_f3z9d-68" style="edgeStyle=orthogonalEdgeStyle;rounded=0;orthogonalLoop=1;jettySize=auto;html=1;startArrow=classic;startFill=1;strokeWidth=2;" edge="1" parent="1">
          <mxGeometry relative="1" as="geometry">
            <mxPoint x="574.66" y="560" as="sourcePoint" />
            <mxPoint x="574.66" y="620" as="targetPoint" />
          </mxGeometry>
        </mxCell>
        <mxCell id="nhkM820oUjrGKa_f3z9d-69" style="edgeStyle=orthogonalEdgeStyle;rounded=0;orthogonalLoop=1;jettySize=auto;html=1;startArrow=classic;startFill=1;strokeWidth=2;" edge="1" parent="1">
          <mxGeometry relative="1" as="geometry">
            <mxPoint x="764.66" y="560" as="sourcePoint" />
            <mxPoint x="764.66" y="620" as="targetPoint" />
          </mxGeometry>
        </mxCell>
      </root>
    </mxGraphModel>
  </diagram>
</mxfile>
